USFL
nRows=197
nColumns=2
inDegrees=yes
endheader
time	med_gas_r	
3.1873	 34.703996	
3.24979	 34.707909	
3.31229	 34.741933	
3.37478	 34.781653	
3.43728	 34.695749	
3.49978	 34.646344	
3.56227	 34.643668	
3.62477	 34.619564	
3.68726	 34.635507	
3.74976	 34.670113	
3.81226	 34.749963	
3.87475	 34.914062	
3.93725	 34.918897	
3.99974	 34.978709	
4.06224	 35.000999	
4.12474	 34.978459	
4.18723	 34.935217	
4.24973	 34.850255	
4.31222	 34.802626	
4.37472	 34.817106	
4.43722	 34.854151	
4.49971	 34.863466	
4.56221	 34.912081	
4.6247	 34.938470	
4.6872	 35.017888	
4.7497	 35.063573	
4.81219	 35.174352	
4.87469	 35.205537	
4.93718	 35.226600	
4.99968	 35.112183	
5.06218	 35.067092	
5.12467	 35.011404	
5.18717	 34.917739	
5.24966	 34.894612	
5.31216	 34.856782	
5.37466	 34.766966	
5.43715	 34.731109	
5.49965	 34.774081	
5.56214	 34.824961	
5.62464	 34.819896	
5.68714	 34.813877	
5.74963	 34.664590	
5.81213	 34.593937	
5.87462	 34.594591	
5.93712	 34.480405	
5.99962	 33.416518	
6.06211	 33.418592	
6.12461	 33.438124	
6.1871	 33.444687	
6.2496	 33.436349	
6.3121	 33.374833	
6.37459	 33.353971	
6.43709	 33.391213	
6.49958	 33.373014	
6.56208	 33.357685	
6.62458	 33.363232	
6.68707	 33.331316	
6.74957	 33.363789	
6.81206	 33.484021	
6.87456	 33.485003	
6.93706	 33.524913	
6.99955	 33.492287	
7.06205	 31.553951	
7.12454	 31.544750	
7.18704	 31.579438	
7.24954	 31.640467	
7.31203	 31.658110	
7.37453	 31.686405	
7.43702	 31.689169	
7.49952	 31.710088	
7.56202	 31.720990	
7.62451	 31.747840	
7.68701	 31.722779	
7.7495	 31.753233	
7.812	 31.825526	
7.8745	 31.835483	
7.93699	 31.864077	
7.99949	 31.915139	
8.06198	 31.879167	
8.12448	 31.905467	
8.18698	 31.794427	
8.24947	 31.716719	
8.31197	 31.786555	
8.37446	 31.809590	
8.43696	 31.818372	
8.49946	 31.825370	
8.56195	 31.823287	
8.62445	 31.749337	
8.68694	 31.811415	
8.74944	 31.841957	
8.81194	 31.876766	
8.87443	 31.873862	
8.93693	 31.889959	
8.99942	 31.866405	
9.06192	 31.848540	
9.12442	 31.893095	
9.18691	 31.918202	
9.24941	 31.942547	
9.3119	 31.949762	
9.3744	 31.961587	
9.4369	 31.960326	
9.49939	 31.941709	
9.56189	 31.899515	
9.62438	 31.945196	
9.68688	 31.986494	
9.74938	 32.022442	
9.81187	 32.042347	
9.87437	 31.575761	
9.93686	 31.558266	
9.99936	 31.576317	
10.0619	 31.563915	
10.1244	 31.559959	
10.1868	 31.563156	
10.2493	 31.594234	
10.3118	 31.626710	
10.3743	 31.663698	
10.4368	 31.639225	
10.4993	 31.592334	
10.5618	 31.623367	
10.6243	 31.634612	
10.6868	 31.619384	
10.7493	 31.632088	
10.8118	 31.685750	
10.8743	 31.732834	
10.9368	 31.779498	
10.9993	 31.782122	
11.0618	 31.793494	
11.1243	 31.825502	
11.1868	 31.848335	
11.2493	 31.879117	
11.3118	 31.910291	
11.3743	 31.928741	
11.4368	 32.017439	
11.4993	 32.038958	
11.5618	 32.133739	
11.6243	 32.202851	
11.6868	 31.652180	
11.7492	 31.787259	
11.8117	 31.885855	
11.8742	 31.894315	
11.9367	 31.931354	
11.9992	 31.939511	
12.0617	 31.949398	
12.1242	 31.972243	
12.1867	 31.881150	
12.2492	 31.932543	
12.3117	 31.931946	
12.3742	 31.944664	
12.4367	 31.991111	
12.4992	 32.012009	
12.5617	 32.024731	
12.6242	 31.955975	
12.6867	 31.940387	
12.7492	 31.924674	
12.8117	 31.843472	
12.8742	 31.806641	
12.9367	 31.864114	
12.9992	 31.762317	
13.0617	 31.676670	
13.1242	 31.647139	
13.1867	 31.702768	
13.2492	 31.762452	
13.3116	 31.759116	
13.3741	 31.729231	
13.4366	 31.679213	
13.4991	 31.666643	
13.5616	 31.728827	
13.6241	 31.659889	
13.6866	 31.612966	
13.7491	 31.706896	
13.8116	 31.781892	
13.8741	 31.891328	
13.9366	 34.518907	
13.9991	 34.321529	
14.0616	 34.263932	
14.1241	 34.145681	
14.1866	 34.067669	
14.2491	 34.023774	
14.3116	 34.088010	
14.3741	 34.164832	
14.4366	 34.144147	
14.4991	 34.138584	
14.5616	 34.054958	
14.6241	 34.265869	
14.6866	 34.123009	
14.7491	 34.223500	
14.8116	 34.192693	
14.874	 34.264706	
14.9365	 34.214705	
14.999	 34.067204	
15.0615	 34.099302	
15.124	 34.143794	
15.1865	 34.107049	
15.249	 33.983770	
15.3115	 33.913949	
15.374	 33.906287	
15.4365	 33.882047	
